<!DOCTYPE svg>
<svg viewBox="0 0 32 32" xmlns="http://www.w3.org/2000/svg" version="1.1">
    <defs>
        <style type="text/css" id="current-color-scheme">
            .ColorScheme-Text {
                color:#fcfcfc;
            }
            .ColorScheme-Highlight {
                color:#3593e6;
            }
        </style>
    </defs>
    <!-- Left Document Outline (exactly matching Slot's document-replace-symbolic) -->
    <path
       style="fill:currentColor; fill-opacity:1; stroke:none"
       d="M 20,22 V 10 L 14,4 H 7 c 0,0 -4,0 -4,4 0,4 0,10 0,14 0,4 4,4 4,4 0,0 5,-0.01577 9,-0.01577 C 20,25.98423 20,22 20,22 Z M 4,22 C 4,19 4,11 4,8 4,5 7,5 7,5 h 6 v 6 h 6 v 11 c 0,0 0,3 -3,2.99895 C 13,24.9979 7,25 7,25 7,25 4,25 4,22 Z"
       class="ColorScheme-Text" />
    <!-- Bottom-Right Classic Checkmark (representing Apply/Update) -->
    <path
       style="fill:currentColor; fill-opacity:1; stroke:none"
       d="M 18,21.5 L 22,25.5 L 28,15.5 L 29.5,17 L 22,27 L 16.5,21.5 Z"
       class="ColorScheme-Highlight" />
</svg>
