<?xml version="1.0" encoding="UTF-8"?>
<svg width="62" height="62" viewBox="0 0 62 62" version="1.1" xmlns="http://www.w3.org/2000/svg">
  <defs>
    <linearGradient id="plate" x1="0" y1="0" x2="62" y2="62" gradientUnits="userSpaceOnUse">
      <stop offset="0" stop-color="#d0d0d0"/>
      <stop offset="1" stop-color="#9e9e9e"/>
    </linearGradient>
    <linearGradient id="body" x1="17" y1="4" x2="58" y2="60" gradientUnits="userSpaceOnUse">
      <stop offset="0" stop-color="#f5f5f5"/>
      <stop offset="1" stop-color="#d7d7d7"/>
    </linearGradient>
  </defs>
  <path d="m 59.081109,50.189861 c 0,5.81014 -4.033306,9.110139 -9.007717,9.110139 H 13.924708 C 8.951247,59.3 4.918891,55.219763 4.918891,50.189861 V 13.810139 c 0,-5.0303802 4.032356,-9.1101391 9.005817,-9.1101391 h 36.148684 c 4.974411,0 9.007717,3.0998612 9.007717,8.9100001 z" fill="url(#plate)"/>
  <path d="m 17.733771,60 v 0 H 11 C 5.9999998,60 2.999997,57.000001 2.999997,52 V 12 C 2.999997,7.0000001 5.9999998,3.9999999 11,3.9999999 h 6.891178 v 0 z" fill="#c4c4c4"/>
  <g fill="#777777">
    <rect x="14.6" y="7.5" width="1.2" height="3.0" rx="0.6"/>
    <rect x="14.6" y="12.1" width="1.2" height="3.0" rx="0.6"/>
    <rect x="14.6" y="16.7" width="1.2" height="3.0" rx="0.6"/>
    <rect x="14.6" y="21.3" width="1.2" height="3.0" rx="0.6"/>
    <rect x="14.6" y="25.9" width="1.2" height="3.0" rx="0.6"/>
    <rect x="14.6" y="30.5" width="1.2" height="3.0" rx="0.6"/>
    <rect x="14.6" y="35.1" width="1.2" height="3.0" rx="0.6"/>
  </g>
  <path d="M 17.7,4 H 49 c 5,0 9.17,4.08 9.17,9.11 v 36.38 c 0,5.03 -4.1,9.11 -9.17,9.11 H 17.7 Z" fill="url(#body)" stroke="#9a9a9a" stroke-width="0.8"/>
  <path d="M 23,31 Q 36,16 49,31 Q 36,46 23,31 Z" fill="#eeeeee" stroke="#777777" stroke-width="1.8" stroke-linejoin="round"/>
  <circle cx="36" cy="31" r="8.5" fill="#a8a8a8" stroke="#666666" stroke-width="0.6"/>
  <circle cx="36" cy="31" r="4" fill="#555555"/>
  <circle cx="38.5" cy="28.5" r="1.2" fill="#ffffff"/>
  <rect x="45" y="11" width="10" height="10" rx="2" fill="#bdbdbd" stroke="#777777" stroke-width="0.6"/>
  <path d="M 47,19 L 50,15 L 52,17 L 54,19 Z" fill="#eeeeee"/>
  <circle cx="52" cy="13.5" r="0.8" fill="#eeeeee"/>
  <rect x="43" y="38" width="10" height="10" rx="2" fill="#9e9e9e" stroke="#666666" stroke-width="0.6"/>
  <path d="M 45.5,43 L 47.5,45.5 L 51,41.5" fill="none" stroke="#eeeeee" stroke-width="1.2" stroke-linecap="round" stroke-linejoin="round"/>
</svg>
